<svg id="Layer_1" data-name="Layer 1" xmlns="http://www.w3.org/2000/svg" viewBox="0 0 566.93 283.46">
  <title>abinder</title>
  <g>
    <path d="M283.77,290.14q-147.21,0-294.4-.06A2,2,0,0,1-12,288.67q-.11-146.54,0-293.09a2,2,0,0,1,1.41-1.41q294.56-.09,589.12,0a2,2,0,0,1,1.41,1.41q.09,146.55,0,293.09a2,2,0,0,1-1.41,1.41Q431.13,290.18,283.77,290.14ZM445.43,99.52l-.25,1a54.18,54.18,0,0,0-7.88,1.12,7.43,7.43,0,0,0-3.49,2.87c-.27.36.91,1.76,1.39,2.7.21.4.35.83.52,1.25a4.25,4.25,0,0,0-1.16.36c-1.24.84-3.36,1.6-3.51,2.63-1.56,10.59-2.64,21.25-4.26,31.83a9.77,9.77,0,0,1-3.64,6.19c-11.79,7.47-23.82,14.56-35.8,21.74a5.12,5.12,0,0,1-1.84.27c0-.61-.11-1.24-.09-1.85.08-1.63.25-3.25.28-4.88A77.37,77.37,0,0,1,386,155c.08-.52,3.16-.57,4.84-.89a3.12,3.12,0,0,0,1.2-.51c10.79-7.49,21.63-14.94,32.31-22.59,1-.73,1.14-2.74,1.67-4.16-1.2-.08-2.5-.48-3.57-.15a31.91,31.91,0,0,0-4.8,2.37q-13.55,7-27.1,14a5.62,5.62,0,0,1-1.51.29c0-.46-.29-1.11-.08-1.35,5.25-6.07,9.72-13.25,16.09-17.74,4.67-3.29,10.05-4.78,10.34-11.54.08-1.85.42-4.95-.36-5.31-1.7-.79-4.75-1-6,0-7,5.75-13.52,11.95-20.23,18a16.55,16.55,0,0,1-1.34,1,8.08,8.08,0,0,1-.08-1.69c1.43-9-2.24-16.74-9.6-18a72.87,72.87,0,0,0-19.22-.9c-6.88.63-13.61,2.76-20.43,4.1-.56.11-2-1-1.91-1.31,1.19-5.27,2.7-10.48,3.8-15.77.35-1.67-.28-3.55-.46-5.33-1.42.87-3.35,1.41-4.16,2.67a46.69,46.69,0,0,0-4.21,8.68c-3.49,9.24-6.17,18.83-10.34,27.74-6.61,14.14-14.13,27.84-21.44,41.63-.23.43-3.37,0-3.44-.3-2.18-11.23-5.09-22.44-5.86-33.8-.62-9.17,1.44-18.51,2.19-27.78.7-8.61-.77-12.13-8.82-14.62-4.62-1.44-10.26-.73-15.21.22-21.86,4.21-43.65,8.81-65.42,13.45a5,5,0,0,0-3.16,3.18c-.23,1.26.78,3.64,1.83,4a13.62,13.62,0,0,0,7.37,1c4.76-1,9.32-2.93,14-4.21.62-.17,2.29,1.13,2.39,1.88a29.39,29.39,0,0,1,0,7.32c-2.44,18.42-4.88,36.85-7.66,55.23-.39,2.56-2,6-4.13,7-6.4,3.19-13.34,5.28-20,8.05-1.77.74-3.14,2.42-4.69,3.67,1.89,1.67,3.76,4.7,5.66,4.72,3.91,0,7.84-1.55,11.77-2.43,1.63-.36,3.59-1.36,4.86-.81,4.71,2,8.88.58,11.23-4,1.18-2.29,2.64-4.83,4.68-6.19,11.78-7.85,23.77-15.37,35.69-23a3.28,3.28,0,0,1,.73-.23,3.76,3.76,0,0,1,.05,1.05c-1.93,7.42-4.15,14.77-5.65,22.27-.44,2.18.45,6.1,2,6.9,4.19,2.21,9.37-.21,10.17-4,1.06-5.06,1.73-10.21,2.85-15.26,1.65-7.53,3.54-15,5.36-22.52a4.59,4.59,0,0,1,.7-1.17,5.57,5.57,0,0,1,.92,1.51c1.6,6.91,2.9,13.9,4.79,20.72,1.35,4.88,4.72,8.42,10,8.9,5.89.53,11.48-1.32,14.33-6.63,5.65-10.51,10.68-21.37,15.74-32.18,2.88-6.18,5.31-12.57,8-18.84.16-.37.68-.58,1-.87a4.14,4.14,0,0,1,.36,1.32c-.16,2.71-.45,5.41-.58,8.12-.8,16.77-1.44,33.56-2.43,50.32-.33,5.75,1.74,8.29,7.34,6.74,2.19-.6,4-2.84,5.76-4.6,9.41-9.52,18.74-19.12,28.09-28.71,1.11-1.15,2.14-2.38,3.21-3.57-.09,1.51-.08,3-.3,4.53-.86,6-1.45,12.14-2.8,18.07-1.47,6.42,2,13.41,9.57,10a166.27,166.27,0,0,0,20.5-11.21c7.24-4.59,14-9.88,21-14.87.23.35.74.77.67,1-1.11,4.31-2.47,8.56-3.37,12.91-.4,1.95-.68,4.76.37,6a7.73,7.73,0,0,0,6.13,2.35c1.67-.28,3.77-2.63,4.27-4.46,1.77-6.49,2.93-13.14,4.36-19.73a6,6,0,0,1,.93-1.56c.42.39.82.81,1.28,1.16,2.5,1.91,4.76,4.83,7.57,5.54,16.22,4.08,32.34.77,48.29-2.1,12.5-2.25,24.84-5.54,37.14-8.78,7.69-2,15.19-4.8,22.76-7.28.44-.15.74-.7,1.1-1.07a11.23,11.23,0,0,0-1.42,0c-10.65,1.52-21.29,3.1-31.95,4.56-17.16,2.37-34.31,4.85-51.52,6.88-5.54.66-11.24.1-16.86,0-.6,0-1.19-.55-1.79-.85.47-.49.89-1,1.4-1.47,8.76-7.6,18.21-14.54,26.1-23s5.1-18.89-6-22.3C464.06,101.81,454.61,101.11,445.43,99.52Zm-335,57.42-.72-.06c.27-3.74.52-7.48.82-11.22.49-5.91.86-11.84,1.64-17.71.15-1.14,1.94-2.07,3-3.1.32.83.69,1.66.95,2.51a7,7,0,0,0,11.77,2.93c2.62-2.74,5.11-5.7,8.08-8,7.91-6.17,15.8-12.43,24.19-17.91,6.78-4.43,14.27-7.8,21.47-11.59a7,7,0,0,1,2-.34,3.67,3.67,0,0,1-.55.87c-8.26,7.06-16.58,14.06-24.8,21.18-8.65,7.47-17.31,14.92-25.69,22.68-1.48,1.37-2.79,5.46-2.09,6.15,2.06,2,5.35,4.3,7.85,4,5.63-.69,11-3.21,16.61-4.39q18.47-3.88,37.09-7c2.26-.38,4.81,1,7.23,1.54-.29,1-.29,2.28-.92,3-4.51,5-8.78,10.27-13.85,14.63-7.64,6.59-15.74,12.67-23.88,18.66q-18.34,13.47-37,26.49c-8.51,6-17.38,11.4-25.82,17.46C90,223.26,82.41,229.24,75,235.35a28.16,28.16,0,0,0-7.29,8.31c-2.23,4.34,1.5,7.07,4.68,8.72,2.54,1.32,5.83,1.18,8.79,1.69-.07-1.69.47-4.48-.29-4.89-3.81-2.09-2.23-4.16-.18-5.85,6.84-5.64,13.69-11.29,20.83-16.54,11.11-8.17,22.43-16.06,33.72-24,11.73-8.22,23.56-16.29,35.3-24.49,3.76-2.63,7.37-5.48,11.08-8.2,4.75-3.5,9.94-6.54,14.18-10.58s7.36-8.93,11-13.43c3.84-4.72,3.29-10.52-1.45-14.39-8.11-6.61-17.64-4.53-26.66-3.75-7.47.65-14.79,3-22.19,4.51a10,10,0,0,1-2.55-.11,5.37,5.37,0,0,1,.86-1.41c8.55-7.15,17-14.47,25.73-21.33,7.34-5.74,15.25-10.74,22.6-16.46,2.15-1.68,4.69-4.75,4.57-7.06-.25-4.94-5.14-7.32-9.06-7.15-6.13.27-12.74,1.32-18.13,4-13.73,6.91-26.89,14.94-40.29,22.49-1,.55-2.05.93-3.07,1.39.45-1,.92-2.07,1.35-3.11s.91-2.35,1.37-3.52a23.57,23.57,0,0,0-4.2-1.08,5.22,5.22,0,0,0-2.74,1c-5.2,3.12-10.36,6.32-15.56,9.44a3.43,3.43,0,0,1-2.1.53c-.28,0-.6-1.2-.53-1.81a31.54,31.54,0,0,1,1-6.6C121.13,85.76,126.59,69.88,132,54c1.87-5.52,4.79-11,1.46-16.9-.64-1.12-2.27-1.84-3.59-2.34-.43-.16-1.71.8-2,1.49-3.12,7.89-6.09,15.83-9.15,23.74-6.41,16.57-13.87,32.81-15,50.94-.35,5.56-1.21,10.93-7,13.91-2,1.06-3.63,3-5.57,4.22-5.72,3.77-11.52,7.44-17.3,11.11a3.17,3.17,0,0,1-1.22.17,2.52,2.52,0,0,1,0-.91c2.26-5.34,4.3-10.79,6.87-16,4.39-8.82,9.17-17.44,13.68-26.21,4.64-9,9.17-18.08,13.7-27.15q4.66-9.37,9.18-18.84c.18-.37-.17-1-.27-1.51-1.61.81-3.78,1.21-4.72,2.5a150.61,150.61,0,0,0-9.22,14.25C93.19,81.85,84.46,97.18,76.3,112.8c-5.38,10.28-10,21-14.68,31.59q-9.9,22.34-19.42,44.84c-1.63,3.83-2.71,7.89-4.17,11.8-2.62,7.08-5.12,14.22-8.08,21.16-2.63,6.17-5.92,12.05-8.66,18.18-.71,1.59-1.25,4.49-.43,5.28a16.2,16.2,0,0,0,7.2,3.84c1.19.28,3.67-1.35,4.27-2.69,2.34-5.21,4.29-10.61,6.17-16,4.72-13.57,9.07-27.27,14-40.75,5.51-15,11.52-29.77,17.35-44.62.21-.53.85-1.24,1.28-1.23s1,.69,1.33,1.21c2.21,3.9,7.92,5.81,11.53,3.32,5.17-3.55,10-7.55,15-11.34a7.29,7.29,0,0,1,1.55-.71,8.33,8.33,0,0,1,.26,1.7c-1,16.67-1.85,33.35-3,50-.27,3.86-1.45,7.65-2.21,11.47-.33,1.67-1.27,4.64-.9,4.82a24.19,24.19,0,0,0,7.94,2.33c.87.08,2.69-2,2.83-3.19C107.31,188.2,108.86,172.57,110.46,156.94Z" style="fill: #fff"/>
    <path d="M445.43,99.52c9.18,1.59,18.63,2.29,27.46,5,11.14,3.41,14,13.76,6,22.3s-17.34,15.36-26.1,23c-.51.44-.93,1-1.4,1.47.6.3,1.19.84,1.79.85,5.62.08,11.32.64,16.86,0,17.21-2,34.36-4.51,51.52-6.88,10.66-1.46,21.3-3,31.95-4.56a11.23,11.23,0,0,1,1.42,0c-.36.37-.66.92-1.1,1.07-7.57,2.48-15.07,5.26-22.76,7.28-12.3,3.24-24.64,6.53-37.14,8.78-16,2.87-32.07,6.18-48.29,2.1-2.81-.71-5.07-3.63-7.57-5.54-.46-.35-.86-.77-1.28-1.16a6,6,0,0,0-.93,1.56c-1.43,6.59-2.59,13.24-4.36,19.73-.5,1.83-2.6,4.18-4.27,4.46a7.73,7.73,0,0,1-6.13-2.35c-1.05-1.22-.77-4-.37-6,.9-4.35,2.26-8.6,3.37-12.91.07-.27-.44-.69-.67-1-7,5-13.79,10.28-21,14.87a166.27,166.27,0,0,1-20.5,11.21c-7.56,3.4-11-3.59-9.57-10,1.35-5.93,1.94-12,2.8-18.07.22-1.5.21-3,.3-4.53-1.07,1.19-2.1,2.42-3.21,3.57-9.35,9.59-18.68,19.19-28.09,28.71-1.74,1.76-3.57,4-5.76,4.6-5.6,1.55-7.67-1-7.34-6.74,1-16.76,1.63-33.55,2.43-50.32.13-2.71.42-5.41.58-8.12a4.14,4.14,0,0,0-.36-1.32c-.35.29-.87.5-1,.87-2.67,6.27-5.1,12.66-8,18.84C319.65,151,314.62,161.87,309,172.38c-2.85,5.31-8.44,7.16-14.33,6.63-5.27-.48-8.64-4-10-8.9-1.89-6.82-3.19-13.81-4.79-20.72a5.57,5.57,0,0,0-.92-1.51,4.59,4.59,0,0,0-.7,1.17c-1.82,7.5-3.71,15-5.36,22.52-1.12,5.05-1.79,10.2-2.85,15.26-.8,3.81-6,6.23-10.17,4-1.51-.8-2.4-4.72-2-6.9,1.5-7.5,3.72-14.85,5.65-22.27a3.76,3.76,0,0,0-.05-1.05,3.28,3.28,0,0,0-.73.23c-11.92,7.63-23.91,15.15-35.69,23-2,1.36-3.5,3.9-4.68,6.19-2.35,4.58-6.52,6-11.23,4-1.27-.55-3.23.45-4.86.81-3.93.88-7.86,2.47-11.77,2.43-1.9,0-3.77-3-5.66-4.72,1.55-1.25,2.92-2.93,4.69-3.67,6.62-2.77,13.56-4.86,20-8.05,2.08-1,3.74-4.49,4.13-7,2.78-18.38,5.22-36.81,7.66-55.23a29.39,29.39,0,0,0,0-7.32c-.1-.75-1.77-2-2.39-1.88-4.71,1.28-9.27,3.2-14,4.21a13.62,13.62,0,0,1-7.37-1c-1.05-.4-2.06-2.78-1.83-4a5,5,0,0,1,3.16-3.18c21.77-4.64,43.56-9.24,65.42-13.45,5-1,10.59-1.66,15.21-.22,8.05,2.49,9.52,6,8.82,14.62-.75,9.27-2.81,18.61-2.19,27.78.77,11.36,3.68,22.57,5.86,33.8.07.34,3.21.73,3.44.3,7.31-13.79,14.83-27.49,21.44-41.63,4.17-8.91,6.85-18.5,10.34-27.74a46.69,46.69,0,0,1,4.21-8.68c.81-1.26,2.74-1.8,4.16-2.67.18,1.78.81,3.66.46,5.33-1.1,5.29-2.61,10.5-3.8,15.77-.07.3,1.35,1.42,1.91,1.31,6.82-1.34,13.55-3.47,20.43-4.1a72.87,72.87,0,0,1,19.22.9c7.36,1.31,11,9.06,9.6,18a8.08,8.08,0,0,0,.08,1.69,16.55,16.55,0,0,0,1.34-1c6.71-6,13.28-12.24,20.23-18,1.26-1,4.31-.79,6,0,.78.36.44,3.46.36,5.31-.29,6.76-5.67,8.25-10.34,11.54C398.7,128.74,394.23,135.92,389,142c-.21.24,0,.89.08,1.35a5.62,5.62,0,0,0,1.51-.29q13.56-7,27.1-14a31.91,31.91,0,0,1,4.8-2.37c1.07-.33,2.37.07,3.57.15-.53,1.42-.64,3.43-1.67,4.16-10.68,7.65-21.52,15.1-32.31,22.59a3.12,3.12,0,0,1-1.2.51c-1.68.32-4.76.37-4.84.89a77.37,77.37,0,0,0-.32,9.77c0,1.63-.2,3.25-.28,4.88,0,.61.06,1.24.09,1.85a5.12,5.12,0,0,0,1.84-.27c12-7.18,24-14.27,35.8-21.74a9.77,9.77,0,0,0,3.64-6.19c1.62-10.58,2.7-21.24,4.26-31.83.15-1,2.27-1.79,3.51-2.63a4.25,4.25,0,0,1,1.16-.36c-.17-.42-.31-.85-.52-1.25-.48-.94-1.66-2.34-1.39-2.7a7.43,7.43,0,0,1,3.49-2.87,54.18,54.18,0,0,1,7.88-1.12Zm-184.68.77a25.43,25.43,0,0,0-3,0c-7.57,1.71-15.16,3.38-22.7,5.21-1.1.26-2,1.3-3,2a19.06,19.06,0,0,1,2.28,1.78c.7.72,1.75,1.65,1.71,2.43-.38,6.79-.62,13.61-1.57,20.33-1.82,12.91-4.09,25.75-6.07,38.64,0,.32,1.37,1.34,1.69,1.18,10.5-5.13,20.94-10.36,31.39-15.58,1.41-.7,3.81-1.13,4.08-2.13,2.63-9.68,5-19.43,7.25-29.21,2-8.81,3.84-17.67,5.74-26.51.1-.51.09-1,.14-1.55a7.58,7.58,0,0,0-1.71,0C271,98.06,265.09,99.36,260.75,100.29ZM363.67,113l-.14-.57c-4.57,1.1-9.16,2.1-13.69,3.34-1.59.44-4.09,1.22-4.34,2.28A64.7,64.7,0,0,0,344,130.19c-.53,12.41-.86,24.83-1.23,37.24a7.17,7.17,0,0,0,.6,2.09c.67-.26,1.57-.34,2-.83,6.3-7.16,13.28-13.86,18.57-21.71s9.14-16.75,13.09-25.43c2-4.39-.72-8-5.52-8.48C368.9,112.84,366.28,113,363.67,113Zm78.18-5.44-4.8,1.42a23.53,23.53,0,0,1,3,1.9c.72.62,1.7,1.57,1.67,2.32a85,85,0,0,1-1,8.56c-1.28,8.76-2.6,17.51-3.87,26.26-.05.32.2.68.31,1a4.44,4.44,0,0,0,1-.42c2.36-1.69,4.8-3.29,7-5.14,8.15-6.73,16.43-13.32,24.25-20.41,4.92-4.46,4.54-10.7-.25-11.57C459.89,109.84,450.47,108.79,441.85,107.59Z"/>
    <path d="M110.46,156.94c-1.6,15.63-3.15,31.26-4.92,46.86-.14,1.22-2,3.27-2.83,3.19a24.19,24.19,0,0,1-7.94-2.33c-.37-.18.57-3.15.9-4.82.76-3.82,1.94-7.61,2.21-11.47,1.14-16.66,2-33.34,3-50a8.33,8.33,0,0,0-.26-1.7,7.29,7.29,0,0,0-1.55.71c-5,3.79-9.87,7.79-15,11.34-3.61,2.49-9.32.58-11.53-3.32-.3-.52-.87-1.21-1.33-1.21s-1.07.7-1.28,1.23C64.05,160.26,58,175.05,52.53,190c-5,13.48-9.31,27.18-14,40.75-1.88,5.41-3.83,10.81-6.17,16-.6,1.34-3.08,3-4.27,2.69a16.2,16.2,0,0,1-7.2-3.84c-.82-.79-.28-3.69.43-5.28,2.74-6.13,6-12,8.66-18.18,3-6.94,5.46-14.08,8.08-21.16,1.46-3.91,2.54-8,4.17-11.8q9.57-22.48,19.42-44.84c4.71-10.61,9.3-21.31,14.68-31.59,8.16-15.62,16.89-30.95,25.54-46.31a150.61,150.61,0,0,1,9.22-14.25c.94-1.29,3.11-1.69,4.72-2.5.1.51.45,1.14.27,1.51q-4.53,9.45-9.18,18.84c-4.53,9.07-9.06,18.14-13.7,27.15-4.51,8.77-9.29,17.39-13.68,26.21-2.57,5.18-4.61,10.63-6.87,16a2.52,2.52,0,0,0,0,.91,3.17,3.17,0,0,0,1.22-.17c5.78-3.67,11.58-7.34,17.3-11.11,1.94-1.27,3.53-3.16,5.57-4.22,5.79-3,6.65-8.35,7-13.91,1.16-18.13,8.62-34.37,15-50.94,3.06-7.91,6-15.85,9.15-23.74.28-.69,1.56-1.65,2-1.49,1.32.5,2.95,1.22,3.59,2.34,3.33,5.88.41,11.38-1.46,16.9-5.41,15.89-10.87,31.77-16.2,47.69a31.54,31.54,0,0,0-1,6.6c-.07.61.25,1.76.53,1.81a3.43,3.43,0,0,0,2.1-.53c5.2-3.12,10.36-6.32,15.56-9.44a5.22,5.22,0,0,1,2.74-1,23.57,23.57,0,0,1,4.2,1.08c-.46,1.17-.9,2.35-1.37,3.52s-.9,2.07-1.35,3.11c1-.46,2.09-.84,3.07-1.39C153.64,97.93,166.8,89.9,180.53,83c5.39-2.71,12-3.76,18.13-4,3.92-.17,8.81,2.21,9.06,7.15.12,2.31-2.42,5.38-4.57,7.06-7.35,5.72-15.26,10.72-22.6,16.46-8.77,6.86-17.18,14.18-25.73,21.33a5.37,5.37,0,0,0-.86,1.41,10,10,0,0,0,2.55.11c7.4-1.53,14.72-3.86,22.19-4.51,9-.78,18.55-2.86,26.66,3.75,4.74,3.87,5.29,9.67,1.45,14.39-3.66,4.5-6.85,9.47-11,13.43s-9.43,7.08-14.18,10.58c-3.71,2.72-7.32,5.57-11.08,8.2-11.74,8.2-23.57,16.27-35.3,24.49-11.29,7.92-22.61,15.81-33.72,24-7.14,5.25-14,10.9-20.83,16.54-2.05,1.69-3.63,3.76.18,5.85.76.41.22,3.2.29,4.89-3-.51-6.25-.37-8.79-1.69-3.18-1.65-6.91-4.38-4.68-8.72A28.16,28.16,0,0,1,75,235.35c7.44-6.11,15-12.09,22.84-17.7,8.44-6.06,17.31-11.5,25.82-17.46q18.66-13,37-26.49c8.14-6,16.24-12.07,23.88-18.66,5.07-4.36,9.34-9.65,13.85-14.63.63-.7.63-2,.92-3-2.42-.56-5-1.92-7.23-1.54q-18.62,3.13-37.09,7c-5.61,1.18-11,3.7-16.61,4.39-2.5.3-5.79-2-7.85-4-.7-.69.61-4.78,2.09-6.15,8.38-7.76,17-15.21,25.69-22.68,8.22-7.12,16.54-14.12,24.8-21.18a3.67,3.67,0,0,0,.55-.87,7,7,0,0,0-2,.34c-7.2,3.79-14.69,7.16-21.47,11.59-8.39,5.48-16.28,11.74-24.19,17.91-3,2.31-5.46,5.27-8.08,8a7,7,0,0,1-11.77-2.93c-.26-.85-.63-1.68-.95-2.51-1,1-2.83,2-3,3.1-.78,5.87-1.15,11.8-1.64,17.71-.3,3.74-.55,7.48-.82,11.22Z"/>
    <path d="M260.75,100.29c4.34-.93,10.28-2.23,16.24-3.48a7.58,7.58,0,0,1,1.71,0c-.05.51,0,1-.14,1.55-1.9,8.84-3.71,17.7-5.74,26.51-2.26,9.78-4.62,19.53-7.25,29.21-.27,1-2.67,1.43-4.08,2.13-10.45,5.22-20.89,10.45-31.39,15.58-.32.16-1.74-.86-1.69-1.18,2-12.89,4.25-25.73,6.07-38.64,1-6.72,1.19-13.54,1.57-20.33,0-.78-1-1.71-1.71-2.43a19.06,19.06,0,0,0-2.28-1.78c1-.67,1.9-1.71,3-2,7.54-1.83,15.13-3.5,22.7-5.21A25.43,25.43,0,0,1,260.75,100.29Z" style="fill: #fff"/>
    <path d="M363.67,113c2.61,0,5.23-.19,7.82,0,4.8.43,7.51,4.09,5.52,8.48-3.95,8.68-7.8,17.57-13.09,25.43s-12.27,14.55-18.57,21.71c-.42.49-1.32.57-2,.83a7.17,7.17,0,0,1-.6-2.09c.37-12.41.7-24.83,1.23-37.24a64.7,64.7,0,0,1,1.51-12.11c.25-1.06,2.75-1.84,4.34-2.28,4.53-1.24,9.12-2.24,13.69-3.34Z" style="fill: #fff"/>
    <path d="M441.85,107.59c8.62,1.2,18,2.25,27.35,3.93,4.79.87,5.17,7.11.25,11.57-7.82,7.09-16.1,13.68-24.25,20.41-2.24,1.85-4.68,3.45-7,5.14a4.44,4.44,0,0,1-1,.42c-.11-.33-.36-.69-.31-1,1.27-8.75,2.59-17.5,3.87-26.26a85,85,0,0,0,1-8.56c0-.75-.95-1.7-1.67-2.32a23.53,23.53,0,0,0-3-1.9Z" style="fill: #fff"/>
  </g>
</svg>
